<svg xmlns="http://www.w3.org/2000/svg" xmlns:xlink="http://www.w3.org/1999/xlink" viewBox="0,0,256,256" width="48px" height="48px" fill-rule="nonzero"><g fill="#fcc419" fill-rule="nonzero" stroke="none" stroke-width="1" stroke-linecap="butt" stroke-linejoin="miter" stroke-miterlimit="10" stroke-dasharray="" stroke-dashoffset="0" font-family="none" font-weight="none" font-size="none" text-anchor="none" style="mix-blend-mode: normal"><g transform="scale(5.33333,5.33333)"><path d="M34.868,28.641c0.73,0.675 1.409,1.362 2.151,1.974c1.007,0.832 2.125,1.469 3.471,1.568c0.84,0.062 1.631,-0.066 2.246,-0.709c1.155,-1.207 0.779,-3.317 -0.778,-4.072c-0.955,-0.463 -1.975,-0.795 -2.975,-1.163c-1.596,-0.587 -3.121,-1.287 -4.309,-2.555c-0.531,-0.567 -0.893,-1.236 -1.108,-1.976c-0.615,-2.118 -0.692,-4.257 -0.017,-6.366c0.766,-2.396 2.46,-3.849 4.892,-4.412c2.043,-0.472 3.998,-0.09 5.874,0.778c1.137,0.526 2.132,1.252 3.015,2.14c0.186,0.187 0.224,0.333 0.093,0.574c-0.661,1.212 -1.305,2.434 -1.955,3.652c-0.033,0.061 -0.076,0.117 -0.134,0.206c-0.245,-0.215 -0.473,-0.423 -0.711,-0.621c-1.338,-1.114 -2.816,-1.888 -4.613,-1.876c-1.188,0.008 -1.994,0.623 -2.271,1.731c-0.298,1.195 0.14,2.253 1.15,2.814c1.119,0.621 2.343,0.969 3.539,1.393c1.719,0.609 3.246,1.507 4.317,3.032c0.714,1.017 1.004,2.188 1.126,3.405c0.146,1.458 0.089,2.899 -0.369,4.309c-0.916,2.82 -3.292,4.638 -6.264,4.79c-2.574,0.132 -4.824,-0.699 -6.782,-2.324c-0.731,-0.607 -1.372,-1.322 -2.042,-2c-0.066,-0.067 -0.101,-0.255 -0.056,-0.329c0.81,-1.313 1.635,-2.618 2.458,-3.923c0.016,-0.021 0.046,-0.035 0.052,-0.04z"></path><path d="M14.274,16.462v-5.122h-14.265v25.556h14.265v-5.122h-9.114v-4.953h8.066v-5.123h-8.066v-5.236z"></path><path d="M29.613,11.34h-10.273v5.038h5.208v13.005c0.085,2.08 -1.047,2.533 -1.047,2.533c-2.377,0.792 -4.346,-2.343 -4.346,-2.343l-2.39,4.211c3.566,3.934 7.443,3.311 7.443,3.311c5.377,-0.113 5.377,-7.712 5.377,-7.712z"></path></g></g></svg>