<svg width="182" height="168" viewBox="0 0 182 168" fill="none" xmlns="http://www.w3.org/2000/svg">
<g clip-path="url(#clip0_14_5)">
<g clip-path="url(#clip1_14_5)">
<path d="M137.431 16.9358C125.552 -0.0761566 102.089 -5.11816 85.1308 5.69584L55.3378 24.6958C51.3074 27.2248 47.849 30.5668 45.1831 34.5098C42.5172 38.4528 40.7037 42.9088 39.858 47.5928C39.4812 49.6948 39.2895 51.8386 39.2859 53.9888C39.3042 59.8198 40.7328 65.5598 43.4494 70.7188C40.9024 74.5909 39.1637 78.9388 38.3388 83.5009C37.4939 88.2689 37.6122 93.2111 38.6839 97.9128C39.7566 102.646 41.7622 107.117 44.5844 111.065C56.4621 128.076 79.9778 133.118 96.8837 122.305L126.646 103.304C130.674 100.772 134.128 97.4258 136.787 93.4788C139.446 89.5318 141.25 85.0719 142.084 80.3858C142.467 78.2788 142.659 76.1418 142.656 73.9998C142.649 68.1798 141.239 62.4488 138.544 57.2908C141.091 53.4218 142.829 49.0778 143.656 44.5198C144.025 42.4108 144.213 40.2748 144.218 38.1338C144.22 30.5388 141.846 23.1338 137.431 16.9558V16.9358Z" fill="#FF3E00"/>
<path d="M82.2189 112.662C80.2621 113.166 78.2665 113.421 76.2652 113.422C72.4443 113.423 68.6799 112.497 65.2947 110.722C61.9104 108.948 59.0059 106.379 56.8306 103.235C54.1747 99.519 52.7477 95.064 52.7502 90.495C52.7518 89.2071 52.8633 87.9227 53.0829 86.662C53.2616 85.7135 53.5021 84.7833 53.8021 83.88L54.3642 82.172L55.8835 83.328C59.4116 85.919 63.3539 87.892 67.5416 89.162L68.6458 89.495L68.5419 90.599V91.172C68.5394 92.553 68.9693 93.902 69.7701 95.026C70.417 95.984 71.2884 96.77 72.3079 97.314C73.352 97.8649 74.4797 98.1499 75.6199 98.151C76.2218 98.1535 76.8222 98.0767 77.4102 97.922C78.0483 97.7549 78.6647 97.4851 79.2429 97.12L109.003 78.026C109.896 77.46 110.631 76.677 111.139 75.75C111.646 74.823 111.91 73.782 111.907 72.724C111.899 71.343 111.458 69.999 110.647 68.88C109.99 67.934 109.114 67.162 108.094 66.628C107.049 66.0889 105.924 65.8133 104.787 65.818C104.185 65.8159 103.584 65.893 102.996 66.048C102.361 66.2112 101.748 66.4808 101.175 66.849L89.8291 74.099C87.9197 75.3021 85.8861 76.1952 83.7814 76.755C81.8356 77.257 79.8358 77.513 77.8268 77.515C74.0067 77.515 70.244 76.589 66.8597 74.817C63.4754 73.045 60.57 70.479 58.3922 67.339C55.7396 63.621 54.3127 59.167 54.3119 54.599C54.3135 53.314 54.4249 52.032 54.6445 50.766C55.1542 47.95 56.2418 45.271 57.8409 42.899C59.4391 40.526 61.5129 38.512 63.9302 36.985L93.7224 17.995C95.5917 16.805 97.6306 15.905 99.7701 15.328C101.716 14.829 103.716 14.578 105.724 14.578C109.553 14.568 113.327 15.488 116.723 17.259C120.119 19.029 123.035 21.599 125.221 24.745C127.858 28.472 129.266 32.929 129.25 37.495C129.248 38.7867 129.136 40.0747 128.916 41.339C128.738 42.2873 128.498 43.2171 128.198 44.12L127.636 45.828L126.116 44.714C122.591 42.119 118.648 40.146 114.458 38.88L113.354 38.537L113.458 37.432V36.86C113.458 35.475 113.029 34.125 112.23 32.995C111.574 32.05 110.7 31.279 109.68 30.745C108.638 30.2057 107.514 29.929 106.379 29.932C105.783 29.945 105.19 30.0359 104.61 30.203C103.971 30.3635 103.354 30.6336 102.779 31.005L72.9864 49.995C72.2797 50.436 71.6548 51.045 71.1496 51.785C70.6785 52.4759 70.3487 53.2901 70.1867 54.162C70.1133 54.5242 70.068 54.8938 70.0511 55.266C70.0503 56.644 70.4794 57.988 71.2793 59.11C71.9345 60.055 72.8093 60.827 73.8279 61.36C74.8706 61.8993 75.9941 62.1757 77.1291 62.172C77.7311 62.1742 78.3314 62.097 78.9194 61.942C79.5586 61.78 80.1756 61.5104 80.7521 61.141L92.1192 53.849C94.0278 52.644 96.0617 51.7507 98.1669 51.193C100.124 50.6892 102.119 50.4345 104.121 50.433C107.942 50.433 111.707 51.358 115.093 53.13C118.479 54.902 121.387 57.469 123.566 60.61C126.219 64.327 127.646 68.781 127.646 73.35C127.649 74.649 127.534 75.946 127.303 77.224C126.797 80.041 125.709 82.721 124.111 85.094C122.512 87.466 120.437 89.479 118.017 91.005L88.2775 109.995C86.3657 111.204 84.3277 112.101 82.2189 112.662Z" fill="white"/>
</g>
<path d="M53.6811 169V134.091H62.1186V148.852H62.5788L74.1186 134.091H84.0561L71.6811 149.67L84.2777 169H74.1868L65.4936 155.278L62.1186 159.54V169H53.6811ZM95.8217 134.091V169H87.3842V134.091H95.8217ZM99.9766 140.943V134.091H129.482V140.943H118.897V169H110.579V140.943H99.9766Z" fill="#FF3E00"/>
</g>
<defs>
<clipPath id="clip0_14_5">
<rect width="182" height="168" fill="white"/>
</clipPath>
<clipPath id="clip1_14_5">
<rect width="128" height="128" fill="white" transform="translate(27)"/>
</clipPath>
</defs>
</svg>
