<svg width="492" height="655" viewBox="0 0 492 655" fill="none" xmlns="http://www.w3.org/2000/svg">
<g clip-path="url(#clip0_14_10)">
<path d="M424.469 65.4941C378.811 -0.294518 288.624 -19.7929 223.44 22.0269L108.923 95.5034C93.4315 105.284 80.1385 118.208 69.8914 133.456C59.6444 148.704 52.6735 165.937 49.4229 184.05C47.9747 192.179 47.2376 200.47 47.224 208.785C47.2943 231.335 52.7853 253.532 63.2273 273.483C53.4374 288.457 46.7541 305.271 43.5835 322.913C40.3358 341.352 40.7906 360.465 44.9099 378.647C49.033 396.951 56.7423 414.241 67.5902 429.509C113.245 495.293 203.633 514.792 268.615 472.976L383.014 399.495C398.497 389.704 411.774 376.764 421.995 361.5C432.213 346.236 439.149 328.989 442.355 310.867C443.825 302.719 444.563 294.455 444.554 286.171C444.527 263.664 439.104 241.501 428.749 221.554C438.535 206.592 445.219 189.793 448.396 172.167C449.815 164.011 450.537 155.75 450.556 147.471C450.564 118.099 441.441 89.4629 424.469 65.5714V65.4941Z" fill="#FF3E00"/>
<path d="M212.248 435.685C204.726 437.636 197.055 438.621 189.363 438.624C174.676 438.628 160.207 435.047 147.195 428.183C134.187 421.322 123.023 411.388 114.661 399.229C104.453 384.859 98.9679 367.63 98.9775 349.961C98.9835 344.98 99.4119 340.013 100.256 335.138C100.943 331.47 101.867 327.873 103.021 324.38L105.181 317.775L111.021 322.245C124.582 332.265 139.735 339.895 155.832 344.806L160.076 346.094L159.677 350.363V352.579C159.667 357.92 161.319 363.137 164.397 367.483C166.884 371.188 170.234 374.228 174.152 376.332C178.166 378.462 182.5 379.564 186.883 379.568C189.196 379.578 191.504 379.281 193.764 378.683C196.217 378.036 198.586 376.993 200.809 375.581L315.201 301.741C318.63 299.552 321.456 296.524 323.409 292.94C325.358 289.355 326.375 285.329 326.362 281.237C326.33 275.897 324.636 270.699 321.52 266.372C318.995 262.714 315.626 259.728 311.704 257.663C307.689 255.578 303.362 254.512 298.993 254.531C296.679 254.522 294.371 254.821 292.111 255.42C289.67 256.051 287.314 257.094 285.112 258.518L241.499 286.555C234.16 291.207 226.343 294.661 218.253 296.826C210.774 298.767 203.087 299.757 195.365 299.765C180.682 299.765 166.219 296.184 153.211 289.331C140.202 282.479 129.035 272.556 120.664 260.413C110.468 246.034 104.983 228.81 104.98 211.145C104.986 206.175 105.415 201.218 106.258 196.322C108.218 185.432 112.398 175.072 118.545 165.899C124.688 156.722 132.659 148.933 141.95 143.028L256.464 69.5902C263.649 64.9882 271.486 61.5077 279.71 59.2764C287.189 57.3466 294.876 56.376 302.595 56.376C317.313 56.3373 331.821 59.8951 344.874 66.7439C357.928 73.5888 369.134 83.5275 377.536 95.6937C387.671 110.107 393.086 127.343 393.022 145C393.015 149.995 392.585 154.976 391.74 159.866C391.054 163.533 390.131 167.129 388.979 170.62L386.818 177.226L380.979 172.918C367.427 162.882 352.27 155.252 336.168 150.356L331.923 149.03L332.323 144.757V142.545C332.323 137.189 330.674 131.968 327.602 127.598C325.08 123.943 321.721 120.962 317.802 118.897C313.795 116.811 309.476 115.741 305.114 115.753C302.823 115.803 300.543 116.154 298.315 116.801C295.857 117.421 293.486 118.466 291.274 119.902L176.76 193.34C174.044 195.045 171.642 197.4 169.7 200.262C167.889 202.934 166.621 206.083 165.999 209.455C165.717 210.855 165.542 212.285 165.478 213.724C165.475 219.053 167.124 224.251 170.199 228.59C172.717 232.244 176.08 235.23 179.995 237.291C184.003 239.376 188.321 240.445 192.684 240.431C194.998 240.439 197.305 240.141 199.565 239.541C202.022 238.915 204.394 237.872 206.61 236.444L250.302 208.244C257.638 203.584 265.456 200.13 273.548 197.973C281.07 196.025 288.74 195.04 296.433 195.034C311.122 195.034 325.592 198.611 338.607 205.464C351.621 212.316 362.799 222.244 371.176 234.39C381.372 248.765 386.856 265.989 386.86 283.658C386.871 288.682 386.428 293.698 385.54 298.64C383.593 309.534 379.413 319.898 373.269 329.075C367.123 338.248 359.149 346.032 349.848 351.934L235.535 425.371C228.187 430.046 220.353 433.514 212.248 435.685Z" fill="white"/>
</g>
<path d="M101.611 655V519.935H134.257V577.047H136.037L180.685 519.935H219.134L171.254 580.213L219.991 655H180.949L147.315 601.911L134.257 618.398V655H101.611ZM264.656 519.935V655H232.01V519.935H264.656ZM280.731 546.447V519.935H394.89V546.447H353.935V655H321.751V546.447H280.731Z" fill="#FF3E00"/>
<defs>
<clipPath id="clip0_14_10">
<rect width="492" height="495" fill="white"/>
</clipPath>
</defs>
</svg>
