<svg width="650" height="650" viewBox="0 0 650 650" fill="none" xmlns="http://www.w3.org/2000/svg">
<g clip-path="url(#clip0_14_5)">
<g clip-path="url(#clip1_14_5)">
<path d="M504.643 65.5256C458.685 -0.294659 367.904 -19.8024 302.292 22.0375L187.021 95.5494C171.427 105.334 158.047 118.265 147.732 133.52C137.418 148.776 130.401 166.016 127.129 184.139C125.671 192.272 124.929 200.566 124.916 208.885C124.987 231.446 130.514 253.654 141.024 273.615C131.17 288.596 124.443 305.418 121.251 323.069C117.982 341.517 118.44 360.638 122.586 378.829C126.737 397.142 134.497 414.44 145.416 429.715C191.371 495.532 282.355 515.039 347.764 473.203L462.916 399.687C478.5 389.891 491.865 376.945 502.153 361.674C512.439 346.403 519.42 329.147 522.647 311.017C524.127 302.865 524.87 294.596 524.861 286.309C524.834 263.791 519.375 241.618 508.951 221.661C518.803 206.692 525.53 189.885 528.728 172.249C530.156 164.09 530.883 155.825 530.903 147.542C530.91 118.156 521.727 89.5059 504.643 65.603V65.5256Z" fill="#FF3E00"/>
<path d="M291.026 435.895C283.454 437.846 275.733 438.832 267.99 438.835C253.207 438.839 238.643 435.256 225.545 428.389C212.451 421.525 201.213 411.586 192.797 399.421C182.521 385.044 177 367.807 177.01 350.13C177.016 345.146 177.447 340.177 178.297 335.3C178.988 331.629 179.919 328.03 181.08 324.536L183.255 317.928L189.132 322.4C202.783 332.425 218.036 340.058 234.238 344.972L238.511 346.261L238.108 350.532V352.749C238.099 358.092 239.762 363.311 242.86 367.66C245.363 371.367 248.735 374.408 252.679 376.513C256.719 378.644 261.082 379.746 265.494 379.751C267.823 379.76 270.145 379.463 272.42 378.865C274.889 378.218 277.274 377.175 279.511 375.762L394.656 301.886C398.108 299.697 400.952 296.667 402.918 293.08C404.881 289.494 405.904 285.466 405.891 281.373C405.858 276.03 404.154 270.83 401.017 266.5C398.475 262.84 395.084 259.853 391.137 257.787C387.095 255.701 382.74 254.635 378.342 254.653C376.013 254.645 373.69 254.943 371.415 255.543C368.957 256.174 366.585 257.218 364.369 258.642L320.47 286.693C313.082 291.347 305.214 294.803 297.071 296.969C289.543 298.911 281.805 299.902 274.032 299.909C259.252 299.909 244.694 296.327 231.6 289.471C218.506 282.615 207.265 272.687 198.839 260.538C188.576 246.153 183.055 228.92 183.052 211.246C183.058 206.275 183.489 201.314 184.339 196.416C186.311 185.521 190.519 175.156 196.706 165.978C202.889 156.797 210.913 149.005 220.266 143.097L335.533 69.6237C342.765 65.0195 350.654 61.5373 358.932 59.3049C366.46 57.3742 374.198 56.4031 381.967 56.4031C396.783 56.3644 411.386 59.9239 424.525 66.776C437.664 73.6242 448.944 83.5677 457.402 95.7397C467.604 110.16 473.054 127.404 472.99 145.07C472.982 150.068 472.55 155.051 471.7 159.943C471.009 163.611 470.08 167.209 468.92 170.703L466.745 177.311L460.867 173.001C447.226 162.961 431.97 155.327 415.761 150.429L411.489 149.102L411.891 144.826V142.613C411.891 137.255 410.231 132.031 407.139 127.659C404.601 124.003 401.219 121.02 397.275 118.954C393.241 116.867 388.894 115.797 384.503 115.808C382.197 115.859 379.902 116.21 377.66 116.857C375.186 117.478 372.799 118.523 370.572 119.96L255.305 193.433C252.57 195.139 250.152 197.495 248.198 200.359C246.375 203.032 245.099 206.182 244.472 209.555C244.188 210.957 244.013 212.387 243.948 213.827C243.945 219.158 245.605 224.358 248.7 228.7C251.235 232.356 254.619 235.343 258.56 237.405C262.595 239.491 266.942 240.561 271.333 240.547C273.662 240.555 275.985 240.256 278.26 239.657C280.733 239.03 283.12 237.987 285.35 236.558L329.33 208.344C336.715 203.682 344.584 200.226 352.729 198.068C360.301 196.119 368.022 195.133 375.765 195.128C390.551 195.128 405.115 198.707 418.216 205.563C431.317 212.419 442.567 222.35 451 234.503C461.263 248.884 466.784 266.117 466.787 283.795C466.798 288.821 466.352 293.839 465.458 298.783C463.499 309.683 459.291 320.052 453.107 329.233C446.92 338.41 438.893 346.199 429.531 352.103L314.466 425.576C307.07 430.253 299.185 433.723 291.026 435.895Z" fill="white"/>
</g>
<path d="M180.611 655.238V520.173H213.257V577.286H215.037L259.685 520.173H298.134L250.254 580.451L298.991 655.238H259.949L226.315 602.149L213.257 618.636V655.238H180.611ZM343.656 520.173V655.238H311.01V520.173H343.656ZM359.731 546.685V520.173H473.89V546.685H432.935V655.238H400.751V546.685H359.731Z" fill="#FF3E00"/>
</g>
<defs>
<clipPath id="clip0_14_5">
<rect width="650" height="650" fill="white"/>
</clipPath>
<clipPath id="clip1_14_5">
<rect width="495.238" height="495.238" fill="white" transform="translate(77.381)"/>
</clipPath>
</defs>
</svg>
