<svg width="222" height="222" viewBox="0 0 222 222" fill="none" xmlns="http://www.w3.org/2000/svg">
<g clip-path="url(#clip0_14_5)">
<path d="M157.431 36.9358C145.552 19.9238 122.089 14.8818 105.131 25.6958L75.3378 44.6958C71.3074 47.2248 67.849 50.5668 65.1831 54.5098C62.5172 58.4528 60.7037 62.9088 59.858 67.5928C59.4812 69.6948 59.2895 71.8386 59.2859 73.9888C59.3042 79.8198 60.7328 85.5598 63.4494 90.7188C60.9024 94.5909 59.1637 98.9388 58.3388 103.501C57.4939 108.269 57.6122 113.211 58.6839 117.913C59.7566 122.646 61.7622 127.117 64.5844 131.065C76.4621 148.076 99.9778 153.118 116.884 142.305L146.646 123.304C150.674 120.772 154.128 117.426 156.787 113.479C159.446 109.532 161.25 105.072 162.084 100.386C162.467 98.2788 162.659 96.1418 162.656 93.9998C162.649 88.1798 161.239 82.4488 158.544 77.2908C161.091 73.4218 162.829 69.0778 163.656 64.5198C164.025 62.4108 164.213 60.2748 164.218 58.1338C164.22 50.5388 161.846 43.1338 157.431 36.9558V36.9358Z" fill="#FF3E00"/>
<path d="M102.219 132.662C100.262 133.166 98.2665 133.421 96.2652 133.422C92.4443 133.423 88.6799 132.497 85.2947 130.722C81.9104 128.948 79.0059 126.379 76.8306 123.235C74.1747 119.519 72.7477 115.064 72.7502 110.495C72.7518 109.207 72.8633 107.923 73.0829 106.662C73.2616 105.713 73.5021 104.783 73.8021 103.88L74.3642 102.172L75.8835 103.328C79.4116 105.919 83.3539 107.892 87.5416 109.162L88.6458 109.495L88.5419 110.599V111.172C88.5394 112.553 88.9693 113.902 89.7701 115.026C90.417 115.984 91.2884 116.77 92.3079 117.314C93.352 117.865 94.4797 118.15 95.6199 118.151C96.2218 118.153 96.8222 118.077 97.4102 117.922C98.0483 117.755 98.6647 117.485 99.2429 117.12L129.003 98.026C129.896 97.46 130.631 96.677 131.139 95.75C131.646 94.823 131.91 93.782 131.907 92.724C131.899 91.343 131.458 89.999 130.647 88.88C129.99 87.934 129.114 87.162 128.094 86.628C127.049 86.0889 125.924 85.8133 124.787 85.818C124.185 85.8159 123.584 85.893 122.996 86.048C122.361 86.2112 121.748 86.4808 121.175 86.849L109.829 94.099C107.92 95.3021 105.886 96.1952 103.781 96.755C101.836 97.257 99.8358 97.513 97.8268 97.515C94.0067 97.515 90.244 96.589 86.8597 94.817C83.4754 93.045 80.57 90.479 78.3922 87.339C75.7396 83.621 74.3127 79.167 74.3119 74.599C74.3135 73.314 74.4249 72.032 74.6445 70.766C75.1542 67.95 76.2418 65.271 77.8409 62.899C79.4391 60.526 81.5129 58.512 83.9302 56.985L113.722 37.995C115.592 36.805 117.631 35.905 119.77 35.328C121.716 34.829 123.716 34.578 125.724 34.578C129.553 34.568 133.327 35.488 136.723 37.259C140.119 39.029 143.035 41.599 145.221 44.745C147.858 48.472 149.266 52.929 149.25 57.495C149.248 58.7867 149.136 60.0747 148.916 61.339C148.738 62.2873 148.498 63.2171 148.198 64.12L147.636 65.828L146.116 64.714C142.591 62.119 138.648 60.146 134.458 58.88L133.354 58.537L133.458 57.432V56.86C133.458 55.475 133.029 54.125 132.23 52.995C131.574 52.05 130.7 51.279 129.68 50.745C128.638 50.2057 127.514 49.929 126.379 49.932C125.783 49.945 125.19 50.0359 124.61 50.203C123.971 50.3635 123.354 50.6336 122.779 51.005L92.9864 69.995C92.2797 70.436 91.6548 71.045 91.1496 71.785C90.6785 72.4759 90.3487 73.2901 90.1867 74.162C90.1133 74.5242 90.068 74.8938 90.0511 75.266C90.0503 76.644 90.4794 77.988 91.2793 79.11C91.9345 80.055 92.8093 80.827 93.8279 81.36C94.8706 81.8993 95.9941 82.1757 97.1291 82.172C97.7311 82.1742 98.3314 82.097 98.9194 81.942C99.5586 81.78 100.176 81.5104 100.752 81.141L112.119 73.849C114.028 72.644 116.062 71.7507 118.167 71.193C120.124 70.6892 122.119 70.4345 124.121 70.433C127.942 70.433 131.707 71.358 135.093 73.13C138.479 74.902 141.387 77.469 143.566 80.61C146.219 84.327 147.646 88.781 147.646 93.35C147.649 94.649 147.534 95.946 147.303 97.224C146.797 100.041 145.709 102.721 144.111 105.094C142.512 107.466 140.437 109.479 138.017 111.005L108.277 129.995C106.366 131.204 104.328 132.101 102.219 132.662Z" fill="white"/>
</g>
<path d="M73.6811 197V162.091H82.1186V176.852H82.5788L94.1186 162.091H104.056L91.6811 177.67L104.278 197H94.1868L85.4936 183.278L82.1186 187.54V197H73.6811ZM115.822 162.091V197H107.384V162.091H115.822ZM119.977 168.943V162.091H149.482V168.943H138.897V197H130.579V168.943H119.977Z" fill="#FF3E00"/>
<defs>
<clipPath id="clip0_14_5">
<rect width="128" height="128" fill="white" transform="translate(47 20)"/>
</clipPath>
</defs>
</svg>
