<svg width="271" height="271" viewBox="0 0 271 271" fill="none" xmlns="http://www.w3.org/2000/svg">
  <style>
    path {
      fill: black;

      @media (prefers-color-scheme: dark) {
        fill: white;
      }
    }
  </style>
<g clip-path="url(#clip0_1_68)">
<path d="M62.5837 20.3383C62.388 20.1223 62.1068 20 61.8133 20H21.0443C20.7508 20 20.4695 20.1223 20.2739 20.3383C20.0742 20.5543 19.9763 20.8438 20.0049 21.1372L23.6774 62.2772C23.7141 62.7092 24.0157 63.0679 24.4315 63.1902L41.1394 67.9592C41.2291 67.9878 41.3269 68 41.4247 68C41.5225 68 41.6163 67.9878 41.71 67.9592L58.4301 63.1902C58.8459 63.0679 59.1435 62.7092 59.1842 62.2772L62.8527 21.1372C62.8812 20.8438 62.7834 20.5543 62.5837 20.3383ZM53.7915 34.5231H34.1611L34.6299 39.8342H53.3187L51.9165 55.5312L41.4206 58.7024L41.3187 58.6698L30.9451 55.5272L30.3785 49.1318H35.4614L35.6815 51.6141L41.4818 52.8288L47.1761 51.6141L47.7834 44.8967H29.9994L28.6176 29.4484H54.244L53.7915 34.5231Z" fill="black"/>
</g>
<g clip-path="url(#clip1_1_68)">
<path d="M186.455 20H144.549C142.866 20 141.5 21.3661 141.5 23.0491V64.9509C141.5 66.6339 142.866 68 144.549 68H186.451C188.134 68 189.5 66.6339 189.5 64.9554V23.0491C189.5 21.3661 188.134 20 186.455 20ZM167.786 56.7812C167.786 61.3482 165.107 63.4286 161.196 63.4286C157.661 63.4286 155.112 61.058 154.071 58.8571L157.665 56.683C158.357 57.9107 159.411 58.8571 160.929 58.8571C162.379 58.8571 163.214 58.2902 163.214 56.0848V41.7143H167.786V56.7812ZM177.701 63.4286C173.652 63.4286 171.353 61.3884 170.071 58.8571L173.5 56.5714C174.433 58.0982 175.451 59.558 177.603 59.558C179.411 59.558 180.357 58.6562 180.357 57.4062C180.357 55.9152 179.375 55.3839 177.388 54.5134L176.299 54.0446C173.152 52.7054 171.058 51.0268 171.058 47.4732C171.058 44.2054 173.554 41.7143 177.446 41.7143C180.219 41.7143 182.21 42.6786 183.647 45.2054L180.254 47.3884C179.504 46.0446 178.701 45.5179 177.446 45.5179C176.17 45.5179 175.362 46.3304 175.362 47.3884C175.362 48.6964 176.17 49.2232 178.04 50.0357L179.129 50.5045C182.839 52.0893 184.929 53.7098 184.929 57.3527C184.929 61.2768 181.844 63.4286 177.701 63.4286Z" fill="black"/>
</g>
<g clip-path="url(#clip2_1_68)">
<path d="M209.649 32.5206C209.35 33.2968 208.252 33.2968 207.954 32.5206L206.676 29.1983C206.584 28.9585 206.394 28.769 206.154 28.6767L202.832 27.3989C202.056 27.1004 202.056 26.0023 202.832 25.7038L206.154 24.426C206.394 24.3337 206.584 24.1442 206.676 23.9044L207.954 20.5821C208.252 19.806 209.35 19.806 209.649 20.5821L210.927 23.9044C211.019 24.1442 211.209 24.3337 211.448 24.426L214.771 25.7038C215.547 26.0023 215.547 27.1004 214.771 27.3989L211.448 28.6767C211.209 28.769 211.019 28.9585 210.927 29.1983L209.649 32.5206Z" fill="black"/>
<path d="M216.897 55.9199C216.657 56.0121 216.468 56.2016 216.375 56.4415L215.098 59.7638C214.799 60.5399 213.701 60.5399 213.402 59.7638L212.125 56.4415C212.032 56.2016 211.843 56.0121 211.603 55.9199L208.281 54.6421C207.505 54.3436 207.505 53.2454 208.281 52.947L211.603 51.6692C211.843 51.5769 212.032 51.3874 212.125 51.1475L213.402 47.8253C213.701 47.0491 214.799 47.0491 215.098 47.8253L216.375 51.1475C216.468 51.3874 216.657 51.5769 216.897 51.6692L220.219 52.947C220.995 53.2454 220.995 54.3436 220.219 54.6421L216.897 55.9199Z" fill="black"/>
<path d="M240.443 44.5686C240.203 44.6608 240.014 44.8503 239.921 45.0901L236.373 54.3151C236.075 55.0913 234.977 55.0913 234.678 54.3151L231.13 45.0901C231.038 44.8503 230.848 44.6608 230.608 44.5686L221.383 41.0205C220.607 40.722 220.607 39.6238 221.383 39.3253L230.608 35.7773C230.848 35.685 231.038 35.4955 231.13 35.2557L234.678 26.0307C234.977 25.2546 236.075 25.2546 236.373 26.0307L239.921 35.2557C240.014 35.4955 240.203 35.685 240.443 35.7773L249.668 39.3253C250.444 39.6239 250.444 40.722 249.668 41.0205L240.443 44.5686Z" fill="black"/>
</g>
<g clip-path="url(#clip3_1_68)">
<path d="M66.7405 101.713L47.0367 82.0095C46.2011 81.1698 45.1005 80.75 44 80.75C42.8995 80.75 41.7989 81.1698 40.9633 82.0095L37.0666 85.9062L41.8886 90.7283C43.4905 89.7867 45.5774 89.9905 46.9511 91.3641C48.3247 92.7378 48.5245 94.8247 47.5829 96.4226L52.3234 101.163C53.9253 100.221 56.0122 100.425 57.3859 101.799C59.0163 103.429 59.0163 106.071 57.3859 107.701C55.7554 109.332 53.1141 109.332 51.4837 107.701C50.1101 106.327 49.9062 104.24 50.8478 102.639L46.1073 97.8981C45.769 98.0978 45.4144 98.2446 45.0435 98.3383V111.158C46.841 111.622 48.1739 113.24 48.1739 115.185C48.1739 117.492 46.3071 119.359 44 119.359C41.6929 119.359 39.8261 117.492 39.8261 115.185C39.8261 113.24 41.159 111.622 42.9565 111.158V98.3383C42.2595 98.159 41.5951 97.8125 41.0489 97.2663C39.6753 95.8927 39.4755 93.8057 40.4171 92.2079L35.591 87.3818L21.2595 101.713C19.5802 103.389 19.5802 106.111 21.2595 107.787L40.9633 127.49C41.7989 128.33 42.8995 128.75 44 128.75C45.1005 128.75 46.2011 128.33 47.0367 127.49L66.7405 107.787C68.4198 106.111 68.4198 103.389 66.7405 101.713Z" fill="black"/>
</g>
<g clip-path="url(#clip4_1_68)">
<path fill-rule="evenodd" clip-rule="evenodd" d="M104.678 80.75C91.4467 80.75 80.75 91.5255 80.75 104.856C80.75 115.512 87.6037 124.532 97.1116 127.725C98.3004 127.965 98.7358 127.206 98.7358 126.568C98.7358 126.009 98.6966 124.094 98.6966 122.098C92.0403 123.535 90.6542 119.224 90.6542 119.224C89.5844 116.43 87.9995 115.712 87.9995 115.712C85.8209 114.235 88.1582 114.235 88.1582 114.235C90.5748 114.395 91.8429 116.71 91.8429 116.71C93.9818 120.381 97.4285 119.344 98.8151 118.705C99.013 117.149 99.6473 116.071 100.321 115.473C95.0119 114.914 89.4262 112.838 89.4262 103.579C89.4262 100.945 90.3764 98.7897 91.8821 97.1136C91.6445 96.5151 90.8124 94.0401 92.1201 90.7276C92.1201 90.7276 94.1405 90.0889 98.6961 93.2021C100.647 92.6744 102.658 92.406 104.678 92.4037C106.699 92.4037 108.758 92.6834 110.66 93.2021C115.216 90.0889 117.237 90.7276 117.237 90.7276C118.545 94.0401 117.712 96.5151 117.474 97.1136C119.02 98.7897 119.931 100.945 119.931 103.579C119.931 112.838 114.345 114.874 108.997 115.473C109.868 116.231 110.621 117.667 110.621 119.942C110.621 123.175 110.582 125.77 110.582 126.567C110.582 127.206 111.017 127.965 112.206 127.725C121.714 124.532 128.567 115.512 128.567 104.856C128.606 91.5255 117.871 80.75 104.678 80.75Z" fill="black"/>
</g>
<g clip-path="url(#clip5_1_68)">
<path d="M156.109 80.75V95.3587H148.804C144.782 95.3587 141.5 92.077 141.5 88.0543C141.5 84.0317 144.782 80.75 148.804 80.75H156.109ZM156.109 97.4457V112.054H148.804C144.782 112.054 141.5 108.773 141.5 104.75C141.5 100.727 144.782 97.4457 148.804 97.4457H156.109ZM156.109 114.141V121.446C156.109 125.468 152.827 128.75 148.804 128.75C144.782 128.75 141.5 125.468 141.5 121.446C141.5 117.423 144.782 114.141 148.804 114.141H156.109ZM172.804 88.0543C172.804 92.077 169.523 95.3587 165.5 95.3587H158.196V80.75H165.5C169.523 80.75 172.804 84.0317 172.804 88.0543ZM165.5 97.4457C163.563 97.4457 161.705 98.2152 160.335 99.585C158.965 100.955 158.196 102.813 158.196 104.75C158.196 106.687 158.965 108.545 160.335 109.915C161.705 111.285 163.563 112.054 165.5 112.054C167.437 112.054 169.295 111.285 170.665 109.915C172.035 108.545 172.804 106.687 172.804 104.75C172.804 102.813 172.035 100.955 170.665 99.585C169.295 98.2152 167.437 97.4457 165.5 97.4457Z" fill="black"/>
</g>
<g clip-path="url(#clip6_1_68)">
<path fill-rule="evenodd" clip-rule="evenodd" d="M224.75 80.75L247.25 119.75H202.25L224.75 80.75Z" fill="black"/>
</g>
<g clip-path="url(#clip7_1_68)">
<path fill-rule="evenodd" clip-rule="evenodd" d="M51.3238 170.845C55.377 171.043 59.6101 169.224 60.9241 165.605C62.2382 161.985 61.7287 158.405 57.0146 156.258C52.3007 154.11 50.1235 151.557 46.3151 150.016C43.8269 149.01 41.0585 149.607 38.2157 151.178C30.5593 155.41 23.6991 168.779 26.8611 181.166C26.9065 181.335 26.8304 181.513 26.6763 181.598C26.5232 181.682 26.331 181.651 26.2122 181.522C21.949 176.819 19.5501 170.442 20.071 163.62C21.0771 150.445 32.5899 140.566 45.7645 141.572C58.9382 142.578 68.8176 154.09 67.8115 167.265C67.3891 172.798 65.114 177.749 61.6398 181.557C58.9831 184.286 55.5982 185.5 52.7736 185.449C50.7259 185.413 48.723 184.598 47.3381 183.407C45.3611 181.703 44.5621 179.757 44.2888 177.585C44.2204 177.045 44.2606 175.574 44.5417 174.555C44.7505 173.796 45.282 172.329 46.059 171.688C45.1499 171.297 43.9809 170.444 43.6116 170.035C43.5214 169.935 43.5335 169.777 43.6147 169.669C43.695 169.561 43.8381 169.518 43.9648 169.564C44.7462 169.832 45.6977 170.096 46.7012 170.264C48.0204 170.485 49.6613 170.762 51.3238 170.845ZM43.0756 151.685C44.367 151.584 45.4938 152.686 45.688 154.152C45.9471 156.105 45.2305 158.122 42.8737 158.168C40.8605 158.208 40.2505 156.178 40.384 154.948C40.5165 153.718 41.5303 151.806 43.0756 151.685Z" fill="black"/>
</g>
<g clip-path="url(#clip8_1_68)">
<path d="M127.607 141.5H81.8929C81.2609 141.5 80.75 142.012 80.75 142.643V188.357C80.75 188.988 81.2609 189.5 81.8929 189.5H127.607C128.239 189.5 128.75 188.988 128.75 188.357V142.643C128.75 142.012 128.239 141.5 127.607 141.5ZM109.321 167.151H103.607V184.929H99.0357V167.151H93.3214V163.214H109.321V167.151ZM110.603 183.914V179.162C110.603 179.162 113.198 181.118 116.312 181.118C119.427 181.118 119.307 179.082 119.307 178.803C119.307 175.847 110.483 175.847 110.483 169.3C110.483 160.396 123.34 163.909 123.34 163.909L123.18 168.142C123.18 168.142 121.023 166.705 118.588 166.705C116.152 166.705 115.273 167.862 115.273 169.1C115.273 172.294 124.177 171.975 124.177 178.404C124.179 188.306 110.603 183.914 110.603 183.914Z" fill="black"/>
</g>
<g clip-path="url(#clip9_1_68)">
<path d="M153.876 182.384C151.708 180.401 151.075 176.237 151.978 173.219C153.545 175.122 155.716 175.724 157.964 176.064C161.435 176.589 164.843 176.393 168.067 174.807C168.436 174.625 168.777 174.383 169.18 174.139C169.483 175.017 169.561 175.903 169.456 176.804C169.199 179.001 168.106 180.698 166.367 181.984C165.672 182.498 164.936 182.958 164.218 183.443C162.013 184.934 161.416 186.682 162.245 189.225C162.264 189.287 162.282 189.349 162.327 189.5C161.2 188.996 160.378 188.262 159.751 187.297C159.089 186.279 158.774 185.152 158.757 183.933C158.749 183.34 158.749 182.742 158.669 182.157C158.475 180.731 157.805 180.093 156.544 180.056C155.25 180.018 154.227 180.818 153.955 182.078C153.935 182.175 153.904 182.27 153.874 182.383L153.876 182.384Z" fill="black"/>
<path d="M141.5 172.716C141.5 172.716 147.921 169.588 154.36 169.588L159.215 154.563C159.397 153.837 159.928 153.343 160.527 153.343C161.126 153.343 161.657 153.837 161.838 154.563L166.693 169.588C174.319 169.588 179.554 172.716 179.554 172.716C179.554 172.716 168.647 143.004 168.625 142.944C168.312 142.066 167.784 141.5 167.071 141.5H153.983C153.271 141.5 152.764 142.066 152.429 142.944C152.406 143.003 141.5 172.716 141.5 172.716Z" fill="black"/>
</g>
<g clip-path="url(#clip10_1_68)">
<path d="M239.643 147.831C235.247 141.449 226.645 139.603 220.019 143.623L208.811 150.748C205.745 152.672 203.641 155.801 203.024 159.359C202.476 162.316 202.953 165.373 204.362 168.032C203.399 169.48 202.75 171.114 202.461 172.835C201.819 176.448 202.656 180.17 204.784 183.166C209.186 189.533 217.767 191.386 224.407 187.412L235.623 180.28C238.673 178.356 240.769 175.227 241.388 171.669C241.927 168.72 241.451 165.67 240.042 163.027C243.021 158.35 242.865 152.336 239.643 147.831ZM218.901 183.785C215.295 184.723 211.485 183.307 209.367 180.242C208.068 178.443 207.592 176.222 207.967 174.016L208.186 172.953L208.389 172.295L208.991 172.695C210.313 173.696 211.792 174.416 213.372 174.901L213.778 175.042L213.732 175.441C213.693 175.997 213.857 176.622 214.178 177.099C214.836 178.045 215.977 178.499 217.079 178.201C217.321 178.123 217.557 178.045 217.759 177.919L228.929 170.794C229.492 170.433 229.852 169.894 229.992 169.253C230.116 168.588 229.953 167.908 229.592 167.369C228.927 166.445 227.793 166.031 226.691 166.305C226.449 166.391 226.191 166.486 225.987 166.61L221.763 169.292C217.767 171.669 212.604 170.552 209.952 166.727C208.662 164.928 208.153 162.683 208.544 160.502C208.934 158.342 210.226 156.45 212.095 155.292L223.24 148.167C223.945 147.729 224.703 147.409 225.524 147.166C229.13 146.227 232.93 147.643 235.058 150.693C236.56 152.804 236.982 155.503 236.199 157.974L235.997 158.64L235.419 158.24C234.081 157.263 232.596 156.519 231.016 156.034L230.616 155.917L230.655 155.518C230.694 154.93 230.531 154.313 230.209 153.836C229.552 152.89 228.41 152.49 227.308 152.773C227.066 152.851 226.831 152.929 226.628 153.055L215.436 160.242C214.873 160.617 214.513 161.141 214.396 161.798C214.279 162.439 214.435 163.143 214.795 163.66C215.436 164.606 216.602 165.005 217.681 164.723C217.94 164.645 218.181 164.567 218.378 164.44L222.649 161.718C223.345 161.257 224.126 160.921 224.925 160.701C228.555 159.755 232.34 161.179 234.459 164.244C235.758 166.043 236.258 168.264 235.898 170.445C235.522 172.605 234.247 174.497 232.394 175.655L221.225 182.763C220.498 183.202 219.716 183.546 218.902 183.78L218.901 183.785Z" fill="black"/>
</g>
<g clip-path="url(#clip11_1_68)">
<path d="M30.4739 237.75C30.4739 237.75 30.4739 221.167 31.0245 221.168C31.4502 221.168 32.004 242.559 32.004 242.559C31.2421 242.47 30.4739 239.04 30.4739 237.75ZM41.1462 221.36C39.6754 214.933 36.4535 209.406 32.0104 205.141L31.9992 205.131C31.4582 204.305 30.9637 203.358 30.5667 202.359L30.5283 202.25C30.5299 202.282 30.5299 202.32 30.5299 202.359C30.5299 203.263 30.125 204.071 29.4864 204.614L29.4816 204.617C23.7613 209.473 20.1216 216.629 20.0016 224.637V224.657C20 224.757 20 224.874 20 224.99C20 232.924 23.8173 239.967 29.7152 244.381L29.7777 244.426L29.9169 244.526C30.1741 246.43 30.3939 248.338 30.5763 250.25H31.5382C31.8039 247.864 32.1625 245.775 32.6314 243.726L32.5578 244.109C33.1916 243.669 33.7454 243.212 34.2624 242.718L34.2575 242.723C38.7406 238.566 41.5384 232.644 41.5384 226.071C41.5384 225.973 41.5384 225.877 41.5368 225.779V225.794C41.532 224.224 41.3895 222.689 41.119 221.199L41.143 221.357L41.1462 221.36Z" fill="black"/>
</g>
<g clip-path="url(#clip12_1_68)">
<path d="M80.75 202.25V236.69H92.316V225.59H105.184V213.348H92.316V202.25H80.75ZM105.184 213.348L116.46 213.35V225.594H105.184V236.69H128.75V202.252H105.184V213.348Z" fill="black"/>
</g>
<g clip-path="url(#clip13_1_68)">
<path d="M80.75 20L84.4893 62.4071L101.321 68L118.154 62.4071L121.893 20H80.75ZM114.296 28.5714L113.782 33.6393L101.429 38.9214L101.396 38.9321H113.343L111.971 54.6393L101.45 57.7143L90.8643 54.5857L90.1786 46.6679H95.4179L95.7607 50.7714L101.396 52.1964L107.257 50.5464L107.654 43.9464L89.8357 43.8929V43.8821L89.8143 43.8929L89.4286 38.9321L101.439 33.9286L102.136 33.6393H88.9679L88.3464 28.5714H114.296Z" fill="black"/>
</g>
<defs>
<clipPath id="clip0_1_68">
<rect width="42.8576" height="48" fill="white" transform="translate(20 20)"/>
</clipPath>
<clipPath id="clip1_1_68">
<rect x="141.5" y="20" width="48" height="48" rx="4" fill="white"/>
</clipPath>
<clipPath id="clip2_1_68">
<rect width="48" height="40.3459" fill="white" transform="translate(202.25 20)"/>
</clipPath>
<clipPath id="clip3_1_68">
<rect width="48" height="48" fill="white" transform="translate(20 80.75)"/>
</clipPath>
<clipPath id="clip4_1_68">
<rect width="48" height="47.0204" fill="white" transform="translate(80.75 80.75)"/>
</clipPath>
<clipPath id="clip5_1_68">
<rect width="31.3043" height="48" fill="white" transform="translate(141.5 80.75)"/>
</clipPath>
<clipPath id="clip6_1_68">
<rect width="48" height="39" fill="white" transform="translate(202.25 80.75)"/>
</clipPath>
<clipPath id="clip7_1_68">
<rect width="48" height="48" fill="white" transform="translate(20 141.5)"/>
</clipPath>
<clipPath id="clip8_1_68">
<rect x="80.75" y="141.5" width="48" height="48" rx="4" fill="white"/>
</clipPath>
<clipPath id="clip9_1_68">
<rect width="38.1308" height="48" fill="white" transform="translate(141.5 141.5)"/>
</clipPath>
<clipPath id="clip10_1_68">
<rect width="39.9228" height="48" fill="white" transform="translate(202.25 141.5)"/>
</clipPath>
<clipPath id="clip11_1_68">
<rect width="21.5384" height="48" fill="white" transform="translate(20 202.25)"/>
</clipPath>
<clipPath id="clip12_1_68">
<rect width="48" height="34.44" fill="white" transform="translate(80.75 202.25)"/>
</clipPath>
<clipPath id="clip13_1_68">
<rect width="41.1429" height="48" fill="white" transform="translate(80.75 20)"/>
</clipPath>
</defs>
</svg>
