<svg
  width="253"
  height="252"
  viewBox="0 0 253 252"
  fill="none"
  xmlns="http://www.w3.org/2000/svg"
>
  <style>
    path {
      fill: black;

      @media (prefers-color-scheme: dark) {
        fill: white;
      }
    }
  </style>
  <g clip-path="url(#clip0_1_73)">
    <path
      d="M54.5837 12.3383C54.388 12.1223 54.1068 12 53.8133 12H13.0443C12.7508 12 12.4695 12.1223 12.2739 12.3383C12.0742 12.5543 11.9763 12.8438 12.0049 13.1372L15.6774 54.2772C15.7141 54.7092 16.0157 55.0679 16.4315 55.1902L33.1394 59.9592C33.2291 59.9878 33.3269 60 33.4247 60C33.5225 60 33.6163 59.9878 33.71 59.9592L50.4301 55.1902C50.8459 55.0679 51.1435 54.7092 51.1842 54.2772L54.8527 13.1372C54.8812 12.8438 54.7834 12.5543 54.5837 12.3383ZM45.7915 26.5231H26.1611L26.6299 31.8342H45.3187L43.9165 47.5312L33.4206 50.7024L33.3187 50.6698L22.9451 47.5272L22.3785 41.1318H27.4614L27.6815 43.6141L33.4818 44.8288L39.1761 43.6141L39.7834 36.8967H21.9994L20.6176 21.4484H46.244L45.7915 26.5231Z"
      fill="black"
    />
  </g>
  <g clip-path="url(#clip1_1_73)">
    <path
      fill-rule="evenodd"
      clip-rule="evenodd"
      d="M109.805 12L106.015 54.9474L88.3312 60L70.647 54.9474L66.8575 12H109.805ZM77.9743 39.7895H83.027L83.1503 42.9474L88.3312 44.7138L93.5121 42.9474L93.8871 37.2632H82.7753L82.5187 32.2105H94.1437L94.5187 27.1579H77.0911L76.7112 22.1053H99.8279L99.1964 32.2105L98.3082 46.7368L88.3312 50.023L78.3543 46.7368L77.9743 39.7895Z"
      fill="black"
    />
  </g>
  <g clip-path="url(#clip2_1_73)">
    <path
      d="M166.76 12H124.854C123.171 12 121.805 13.3661 121.805 15.0491V56.9509C121.805 58.6339 123.171 60 124.854 60H166.756C168.439 60 169.805 58.6339 169.805 56.9554V15.0491C169.805 13.3661 168.439 12 166.76 12ZM148.091 48.7813C148.091 53.3482 145.412 55.4286 141.501 55.4286C137.966 55.4286 135.417 53.058 134.376 50.8571L137.97 48.683C138.662 49.9107 139.716 50.8571 141.234 50.8571C142.684 50.8571 143.519 50.2902 143.519 48.0848V33.7143H148.091V48.7813ZM158.006 55.4286C153.957 55.4286 151.658 53.3884 150.376 50.8571L153.805 48.5714C154.738 50.0982 155.756 51.558 157.908 51.558C159.716 51.558 160.662 50.6563 160.662 49.4063C160.662 47.9152 159.68 47.3839 157.693 46.5134L156.604 46.0446C153.457 44.7054 151.363 43.0268 151.363 39.4732C151.363 36.2054 153.859 33.7143 157.751 33.7143C160.524 33.7143 162.515 34.6786 163.952 37.2054L160.559 39.3884C159.809 38.0446 159.006 37.5179 157.751 37.5179C156.475 37.5179 155.667 38.3304 155.667 39.3884C155.667 40.6964 156.475 41.2232 158.345 42.0357L159.434 42.5045C163.144 44.0893 165.234 45.7098 165.234 49.3527C165.234 53.2768 162.149 55.4286 158.006 55.4286Z"
      fill="black"
    />
  </g>
  <g clip-path="url(#clip3_1_73)">
    <path
      d="M190.608 26.8959C190.252 27.8193 188.946 27.8193 188.591 26.8959L187.071 22.9433C186.961 22.658 186.735 22.4325 186.45 22.3228L182.497 20.8026C181.574 20.4474 181.574 19.141 182.497 18.7859L186.45 17.2657C186.735 17.1559 186.961 16.9304 187.071 16.6451L188.591 12.6925C188.946 11.7691 190.252 11.7692 190.608 12.6925L192.128 16.6451C192.238 16.9304 192.463 17.1559 192.748 17.2657L196.701 18.7859C197.624 19.141 197.624 20.4474 196.701 20.8026L192.748 22.3228C192.463 22.4325 192.238 22.658 192.128 22.9433L190.608 26.8959Z"
      fill="black"
    />
    <path
      d="M199.231 54.7343C198.945 54.844 198.72 55.0695 198.61 55.3548L197.09 59.3074C196.735 60.2308 195.428 60.2308 195.073 59.3074L193.553 55.3548C193.443 55.0695 193.218 54.844 192.932 54.7343L188.98 53.2141C188.056 52.8589 188.056 51.5525 188.98 51.1974L192.932 49.6772C193.218 49.5674 193.443 49.3419 193.553 49.0566L195.073 45.1041C195.428 44.1806 196.735 44.1806 197.09 45.1041L198.61 49.0566C198.72 49.3419 198.945 49.5674 199.231 49.6772L203.183 51.1974C204.107 51.5525 204.107 52.8589 203.183 53.2141L199.231 54.7343Z"
      fill="black"
    />
    <path
      d="M227.243 41.2295C226.958 41.3392 226.733 41.5647 226.623 41.85L222.402 52.8251C222.047 53.7485 220.74 53.7485 220.385 52.8251L216.164 41.85C216.054 41.5647 215.829 41.3392 215.543 41.2295L204.568 37.0083C203.645 36.6531 203.645 35.3467 204.568 34.9916L215.543 30.7704C215.829 30.6606 216.054 30.4351 216.164 30.1499L220.385 19.1748C220.74 18.2514 222.047 18.2514 222.402 19.1748L226.623 30.1499C226.733 30.4351 226.958 30.6606 227.243 30.7704L238.219 34.9916C239.142 35.3467 239.142 36.6531 238.219 37.0083L227.243 41.2295Z"
      fill="black"
    />
  </g>
  <path
    d="M56.9213 93.2062L38.7938 75.0787C38.025 74.3062 37.0125 73.92 36 73.92C34.9875 73.92 33.975 74.3062 33.2063 75.0787L29.6213 78.6637L34.0575 83.1C35.5313 82.2337 37.4513 82.4212 38.715 83.685C39.9788 84.9487 40.1625 86.8687 39.2963 88.3387L43.6575 92.7C45.1313 91.8337 47.0513 92.0212 48.315 93.285C49.815 94.785 49.815 97.215 48.315 98.715C46.815 100.215 44.385 100.215 42.885 98.715C41.6213 97.4512 41.4338 95.5312 42.3 94.0575L37.9388 89.6962C37.6275 89.88 37.3013 90.015 36.96 90.1012V101.895C38.6138 102.322 39.84 103.811 39.84 105.6C39.84 107.722 38.1225 109.44 36 109.44C33.8775 109.44 32.16 107.722 32.16 105.6C32.16 103.811 33.3863 102.322 35.04 101.895V90.1012C34.3988 89.9362 33.7875 89.6175 33.285 89.115C32.0213 87.8512 31.8375 85.9312 32.7038 84.4612L28.2638 80.0212L15.0788 93.2062C13.5338 94.7475 13.5338 97.2525 15.0788 98.7937L33.2063 116.921C33.975 117.694 34.9875 118.08 36 118.08C37.0125 118.08 38.025 117.694 38.7938 116.921L56.9213 98.7937C58.4663 97.2525 58.4663 94.7475 56.9213 93.2062Z"
    fill="black"
  />
  <g clip-path="url(#clip4_1_73)">
    <path
      fill-rule="evenodd"
      clip-rule="evenodd"
      d="M96.427 72C82.9195 72 72 83 72 96.6085C72 107.486 78.9965 116.694 88.7025 119.953C89.916 120.198 90.3605 119.424 90.3605 118.772C90.3605 118.202 90.3205 116.246 90.3205 114.209C83.5255 115.676 82.1105 111.276 82.1105 111.276C81.0185 108.424 79.4005 107.69 79.4005 107.69C77.1765 106.183 79.5625 106.183 79.5625 106.183C82.0295 106.346 83.324 108.709 83.324 108.709C85.5075 112.457 89.026 111.398 90.4415 110.746C90.6435 109.157 91.291 108.057 91.9785 107.446C86.559 106.875 80.857 104.757 80.857 95.3045C80.857 92.6155 81.827 90.4155 83.364 88.7045C83.1215 88.0935 82.272 85.567 83.607 82.1855C83.607 82.1855 85.6695 81.5335 90.32 84.7115C92.311 84.1728 94.3644 83.8988 96.427 83.8965C98.4895 83.8965 100.592 84.182 102.534 84.7115C107.185 81.5335 109.247 82.1855 109.247 82.1855C110.582 85.567 109.732 88.0935 109.489 88.7045C111.067 90.4155 111.997 92.6155 111.997 95.3045C111.997 104.757 106.295 106.834 100.835 107.446C101.725 108.22 102.493 109.686 102.493 112.009C102.493 115.309 102.453 117.957 102.453 118.772C102.453 119.424 102.898 120.198 104.111 119.954C113.817 116.694 120.813 107.486 120.813 96.6085C120.853 83 109.894 72 96.427 72Z"
      fill="black"
    />
  </g>
  <path
    d="M157 73.92V87.36H150.28C146.579 87.36 143.56 84.3408 143.56 80.64C143.56 76.9392 146.579 73.92 150.28 73.92H157ZM157 89.28V102.72H150.28C146.579 102.72 143.56 99.7008 143.56 96C143.56 92.2992 146.579 89.28 150.28 89.28H157ZM157 104.64V111.36C157 115.061 153.981 118.08 150.28 118.08C146.579 118.08 143.56 115.061 143.56 111.36C143.56 107.659 146.579 104.64 150.28 104.64H157ZM172.36 80.64C172.36 84.3408 169.341 87.36 165.64 87.36H158.92V73.92H165.64C169.341 73.92 172.36 76.9392 172.36 80.64ZM165.64 89.28C163.858 89.28 162.148 89.988 160.888 91.2482C159.628 92.5085 158.92 94.2177 158.92 96C158.92 97.7822 159.628 99.4915 160.888 100.752C162.148 102.012 163.858 102.72 165.64 102.72C167.422 102.72 169.132 102.012 170.392 100.752C171.652 99.4915 172.36 97.7822 172.36 96C172.36 94.2177 171.652 92.5085 170.392 91.2482C169.132 89.988 167.422 89.28 165.64 89.28Z"
    fill="black"
  />
  <path
    fill-rule="evenodd"
    clip-rule="evenodd"
    d="M217 76.5L239.5 115.5H194.5L217 76.5Z"
    fill="black"
  />
  <path
    fill-rule="evenodd"
    clip-rule="evenodd"
    d="M43.3238 161.345C47.377 161.543 51.6101 159.724 52.9241 156.105C54.2382 152.485 53.7287 148.905 49.0146 146.758C44.3007 144.61 42.1235 142.057 38.3151 140.516C35.8269 139.51 33.0585 140.107 30.2157 141.678C22.5593 145.91 15.6991 159.279 18.8611 171.666C18.9065 171.835 18.8304 172.013 18.6763 172.098C18.5232 172.182 18.331 172.151 18.2122 172.022C13.949 167.319 11.5501 160.942 12.071 154.12C13.0771 140.945 24.5899 131.066 37.7645 132.072C50.9382 133.078 60.8176 144.59 59.8115 157.765C59.3891 163.298 57.114 168.249 53.6398 172.057C50.9831 174.786 47.5982 176 44.7736 175.949C42.7259 175.913 40.723 175.098 39.3381 173.907C37.3611 172.203 36.5621 170.257 36.2888 168.085C36.2204 167.545 36.2606 166.074 36.5417 165.055C36.7505 164.296 37.282 162.829 38.059 162.188C37.1499 161.797 35.9809 160.944 35.6116 160.535C35.5214 160.435 35.5335 160.277 35.6147 160.169C35.695 160.061 35.8381 160.018 35.9648 160.064C36.7462 160.332 37.6977 160.596 38.7012 160.764C40.0204 160.985 41.6613 161.262 43.3238 161.345ZM35.0756 142.185C36.367 142.084 37.4938 143.186 37.688 144.652C37.9471 146.605 37.2305 148.622 34.8737 148.668C32.8605 148.708 32.2505 146.678 32.384 145.448C32.5165 144.218 33.5303 142.306 35.0756 142.185Z"
    fill="black"
  />
  <path
    d="M115.2 135.84H76.8C76.2691 135.84 75.84 136.27 75.84 136.8V175.2C75.84 175.73 76.2691 176.16 76.8 176.16H115.2C115.731 176.16 116.16 175.73 116.16 175.2V136.8C116.16 136.27 115.731 135.84 115.2 135.84ZM99.84 157.387H95.04V172.32H91.2V157.387H86.4V154.08H99.84V157.387ZM100.916 171.468V167.476C100.916 167.476 103.096 169.119 105.712 169.119C108.328 169.119 108.228 167.409 108.228 167.174C108.228 164.692 100.815 164.692 100.815 159.192C100.815 151.713 111.615 154.664 111.615 154.664L111.481 158.22C111.481 158.22 109.669 157.012 107.624 157.012C105.578 157.012 104.84 157.984 104.84 159.024C104.84 161.707 112.319 161.439 112.319 166.839C112.32 175.157 100.916 171.468 100.916 171.468Z"
    fill="black"
  />
  <path
    d="M173.359 138.343C168.969 131.968 160.375 130.125 153.757 134.14L142.561 141.258C139.498 143.179 137.397 146.305 136.78 149.859C136.233 152.812 136.71 155.866 138.117 158.523C137.155 159.969 136.507 161.601 136.218 163.32C135.577 166.929 136.413 170.647 138.538 173.64C142.936 180 151.507 181.851 158.14 177.882L169.344 170.757C172.39 168.835 174.484 165.709 175.102 162.156C175.641 159.21 175.165 156.163 173.758 153.523C176.734 148.851 176.578 142.843 173.359 138.343ZM152.64 174.258C149.038 175.195 145.233 173.781 143.116 170.719C141.819 168.922 141.343 166.704 141.718 164.5L141.937 163.438L142.14 162.781L142.741 163.18C144.061 164.181 145.539 164.899 147.117 165.384L147.523 165.525L147.477 165.924C147.438 166.479 147.601 167.103 147.922 167.58C148.579 168.525 149.719 168.978 150.82 168.681C151.062 168.603 151.297 168.525 151.5 168.399L162.657 161.281C163.219 160.921 163.579 160.383 163.719 159.742C163.843 159.078 163.68 158.398 163.32 157.86C162.655 156.937 161.523 156.523 160.422 156.798C160.18 156.883 159.922 156.978 159.718 157.102L155.499 159.781C151.507 162.156 146.35 161.04 143.701 157.219C142.413 155.422 141.904 153.18 142.294 151C142.684 148.843 143.974 146.953 145.842 145.797L156.975 138.679C157.678 138.241 158.436 137.922 159.256 137.679C162.858 136.741 166.654 138.156 168.78 141.202C170.28 143.311 170.701 146.007 169.92 148.476L169.717 149.14L169.14 148.741C167.803 147.765 166.32 147.022 164.742 146.538L164.343 146.421L164.382 146.022C164.421 145.435 164.257 144.819 163.936 144.342C163.279 143.397 162.139 142.998 161.038 143.28C160.797 143.358 160.561 143.436 160.359 143.562L149.179 150.741C148.617 151.116 148.257 151.639 148.14 152.295C148.023 152.935 148.179 153.639 148.539 154.155C149.179 155.1 150.343 155.499 151.422 155.217C151.68 155.139 151.921 155.061 152.118 154.935L156.384 152.215C157.08 151.755 157.86 151.419 158.658 151.2C162.283 150.255 166.065 151.677 168.181 154.738C169.479 156.535 169.978 158.754 169.618 160.933C169.243 163.09 167.97 164.98 166.119 166.137L154.962 173.238C154.236 173.676 153.454 174.019 152.641 174.253L152.64 174.258Z"
    fill="black"
  />
  <g clip-path="url(#clip5_1_73)">
    <path
      d="M204.376 172.884C202.208 170.901 201.575 166.737 202.478 163.719C204.045 165.622 206.216 166.224 208.464 166.564C211.935 167.089 215.343 166.893 218.567 165.307C218.936 165.125 219.277 164.883 219.68 164.639C219.983 165.517 220.061 166.403 219.956 167.304C219.699 169.501 218.606 171.198 216.867 172.484C216.172 172.998 215.436 173.458 214.718 173.943C212.513 175.434 211.916 177.182 212.745 179.725C212.764 179.787 212.782 179.849 212.827 180C211.7 179.496 210.878 178.762 210.251 177.797C209.589 176.779 209.274 175.652 209.257 174.433C209.249 173.84 209.249 173.242 209.169 172.657C208.975 171.231 208.305 170.593 207.044 170.556C205.75 170.518 204.727 171.318 204.455 172.578C204.435 172.675 204.404 172.77 204.374 172.883L204.376 172.884Z"
      fill="black"
    />
    <path
      d="M192 163.216C192 163.216 198.421 160.088 204.86 160.088L209.715 145.063C209.897 144.337 210.428 143.843 211.027 143.843C211.626 143.843 212.157 144.337 212.338 145.063L217.193 160.088C224.819 160.088 230.054 163.216 230.054 163.216C230.054 163.216 219.147 133.504 219.125 133.444C218.812 132.566 218.284 132 217.571 132H204.483C203.771 132 203.264 132.566 202.929 133.444C202.906 133.503 192 163.216 192 163.216Z"
      fill="black"
    />
  </g>
  <path
    d="M35.7315 226.777C35.7315 226.777 35.7315 211.236 36.2475 211.237C36.6465 211.237 37.1655 231.285 37.1655 231.285C36.4515 231.201 35.7315 227.986 35.7315 226.777ZM45.7335 211.417C44.355 205.393 41.3355 200.214 37.1715 196.216L37.161 196.207C36.654 195.433 36.1905 194.545 35.8185 193.609L35.7825 193.507C35.784 193.537 35.784 193.573 35.784 193.609C35.784 194.457 35.4045 195.214 34.806 195.723L34.8015 195.726C29.4405 200.277 26.0295 206.983 25.917 214.488V214.507C25.9155 214.6 25.9155 214.71 25.9155 214.819C25.9155 222.255 29.493 228.855 35.0205 232.992L35.079 233.034L35.2095 233.128C35.4505 234.912 35.6565 236.7 35.8275 238.492H36.729C36.978 236.256 37.314 234.298 37.7535 232.378L37.6845 232.737C38.2785 232.324 38.7975 231.897 39.282 231.433L39.2775 231.438C43.479 227.542 46.101 221.992 46.101 215.832C46.101 215.74 46.101 215.65 46.0995 215.559V215.572C46.095 214.101 45.9615 212.662 45.708 211.266L45.7305 211.414L45.7335 211.417Z"
    fill="black"
  />
  <path
    d="M72 198.78V233.22H83.566V222.12H96.434V209.878H83.566V198.78H72ZM96.434 209.878L107.71 209.88V222.124H96.434V233.22H120V198.782H96.434V209.878Z"
    fill="black"
  />
  <defs>
    <clipPath id="clip0_1_73">
      <rect
        width="42.8576"
        height="48"
        fill="white"
        transform="translate(12 12)"
      />
    </clipPath>
    <clipPath id="clip1_1_73">
      <rect
        width="42.9474"
        height="48"
        fill="white"
        transform="translate(66.8575 12)"
      />
    </clipPath>
    <clipPath id="clip2_1_73">
      <rect
        width="48"
        height="48"
        fill="white"
        transform="translate(121.805 12)"
      />
    </clipPath>
    <clipPath id="clip3_1_73">
      <rect
        width="57.1062"
        height="48"
        fill="white"
        transform="translate(181.805 12)"
      />
    </clipPath>
    <clipPath id="clip4_1_73">
      <rect width="49" height="48" fill="white" transform="translate(72 72)" />
    </clipPath>
    <clipPath id="clip5_1_73">
      <rect
        width="38.1308"
        height="48"
        fill="white"
        transform="translate(192 132)"
      />
    </clipPath>
  </defs>
</svg>
